inDegrees=no
num_controls=7
num_derivatives=13
num_iterations=106
num_multipliers=7
num_parameters=0
num_slacks=7
num_states=26
objective=0.430111
objective_accelerations=0.050200
objective_balance=0.001213
objective_effort=0.012595
objective_height=0.360111
objective_ligament=0.005993
solver_duration=1561.559431
status=Solve_Succeeded
success=true
DataType=double
version=3
OpenSimVersion=4.5
endheader
time	/jointset/ground_pelvis/pelvis_tilt/value	/jointset/ground_pelvis/pelvis_tx/value	/jointset/ground_pelvis/pelvis_ty/value	/jointset/hip_l/hip_flexion_l/value	/jointset/hip_l/hip_adduction_l/value	/jointset/hip_l/hip_rotation_l/value	/jointset/back/lumbar_extension/value	/jointset/patellofemoral_l/patellar_flexion_l/value	/jointset/knee_l/knee_flexion_l/value	/jointset/knee_l/knee_adduction_l/value	/jointset/knee_l/knee_rotation_l/value	/jointset/ankle_l/ankle_angle_l/value	/jointset/subtalar_l/subtalar_angle_l/value	/jointset/ground_pelvis/pelvis_tilt/speed	/jointset/ground_pelvis/pelvis_tx/speed	/jointset/ground_pelvis/pelvis_ty/speed	/jointset/hip_l/hip_flexion_l/speed	/jointset/hip_l/hip_adduction_l/speed	/jointset/hip_l/hip_rotation_l/speed	/jointset/back/lumbar_extension/speed	/jointset/patellofemoral_l/patellar_flexion_l/speed	/jointset/knee_l/knee_flexion_l/speed	/jointset/knee_l/knee_adduction_l/speed	/jointset/knee_l/knee_rotation_l/speed	/jointset/ankle_l/ankle_angle_l/speed	/jointset/subtalar_l/subtalar_angle_l/speed	/forceset/tau_hip_flexion_l	/forceset/tau_hip_adduction_l	/forceset/tau_hip_rotation_l	/forceset/tau_knee_flexion_l	/forceset/tau_ankle_angle_l	/forceset/tau_subtalar_angle_l	/forceset/tau_lumbar_extension	lambda_cid13_p0	lambda_cid13_p1	lambda_cid13_p2	lambda_cid13_p3	lambda_cid13_p4	lambda_cid13_p5	lambda_cid14_p0	/jointset/ground_pelvis/pelvis_tilt/accel	/jointset/ground_pelvis/pelvis_tx/accel	/jointset/ground_pelvis/pelvis_ty/accel	/jointset/hip_l/hip_flexion_l/accel	/jointset/hip_l/hip_adduction_l/accel	/jointset/hip_l/hip_rotation_l/accel	/jointset/back/lumbar_extension/accel	/jointset/patellofemoral_l/patellar_flexion_l/accel	/jointset/knee_l/knee_flexion_l/accel	/jointset/knee_l/knee_adduction_l/accel	/jointset/knee_l/knee_rotation_l/accel	/jointset/ankle_l/ankle_angle_l/accel	/jointset/subtalar_l/subtalar_angle_l/accel	gamma_cid13_p0	gamma_cid13_p1	gamma_cid13_p2	gamma_cid13_p3	gamma_cid13_p4	gamma_cid13_p5	gamma_cid14_p0
1	-0.3670744582312325	0.01428984267153792	0.645770103990056	1.480277514759087	-0.35661835150279	0.1120308558889114	-0.4363256590308086	1.384465235129255	1.384465235129124	0.02544082081911499	-0.1745234691146564	0.4351561741185622	0.2333268515372825	-0.1338402168615375	0.004408303114151007	0.03047944471996283	0.02477251328762784	0.00246158640737744	-0.06249608561277098	-0.000132369817121245	-0.1489810002144373	-0.1489810002144518	0.006933676389878816	-2.026892940720955e-05	-0.05193259336005032	-0.02585324652708122	-0.1968256133150681	0.03718618652411917	-0.005189776438409881	-0.2869867647586381	-0.03503711798018758	0.01789139381346292	0.1836705539742171	-41.30552837303541	3.227072979220568	-5.09603696470081	4.327734914477347	-528.8056751119484	-76.04305375143795	-0.02464897761883228	1.316372690860316	0.2265888283518251	1.678690825606732	-5.687355261022729	-0.1290277587042882	-1.477203788948079	-0.0251634993481317	-5.086509722832786	-5.086509722832744	-0.6545003850467271	-0.02460073325469595	-1.14966952240061	-0.8684133746424901	-3.263807656607747e-09	-9.3768506818856e-08	3.915013057579676e-09	-3.463661766420035e-09	-5.595763232050305e-09	-8.914244582584392e-08	-3.800825941387381e-09
1.01	-0.3683477038095142	0.01434523688705199	0.6461586200786295	1.480241941808333	-0.3565996397636324	0.1113330254228382	-0.4363273562432369	1.382721484351723	1.3827214843517	0.02547739768760152	-0.1745235828939121	0.4345793836205455	0.2330258428642361	-0.1207991857145808	0.00667337128149569	0.04721567929109307	-0.03188133851015451	0.001286117619353817	-0.0770622107205769	-0.0002063415246705769	-0.1997663310913915	-0.1997663310914289	0.000384025237846284	-1.315498385866332e-06	-0.06343612485336017	-0.03433953410942193	-0.1972869839525826	0.03734610983682838	-0.00524930833386112	-0.2858767749706445	-0.03553844507021984	0.01789387736838232	0.1839104430783239	-41.44048957420516	3.213539368082185	-5.052660784450674	4.322232803620297	-528.6037036721843	-75.83737605496579	-0.02466886978513751	1.299425637832678	0.2268891006561458	1.669873760928229	-5.653535166420519	-0.111000539154665	-1.445158209276971	0.001595665322203747	-5.074120046450858	-5.074120046454293	-0.6548618910186897	0.01531243379801625	-1.152294079581996	-0.8373744861759661	-4.410677243702172e-09	-1.208102627304464e-07	2.510419385409514e-09	-6.985412815286775e-09	-9.740101209732087e-09	-1.092323257206874e-07	-5.451421532724583e-09
1.02	-0.3694902476140824	0.01442336644218556	0.6467142553105266	1.479640003334148	-0.3565925215324157	0.1104897654381711	-0.436329771238361	1.380469965210158	1.380469965210241	0.02544854516241863	-0.1745234733283557	0.4338872379842382	0.232640243708137	-0.107699862118851	0.008955371038052525	0.06390327338469926	-0.08850059139851947	0.0001428848191992231	-0.09158198933158782	-0.0002759263609977951	-0.2505346730213112	-0.2505346730213708	-0.006152202343673262	2.440003333401048e-05	-0.07500362101810316	-0.04277134313760707	-0.1977483545900994	0.03750603314953855	-0.005308840229320351	-0.2847667851826514	-0.03603977216025155	0.01789636092330378	0.1841503321824287	-41.58127302660355	3.199922104896647	-5.008011214394358	4.319435405479811	-528.5276328740597	-75.63261392005477	-0.02469092663011992	1.328031180614925	0.2299751461942563	1.668962730101923	-5.680435479139253	-0.1225805611304843	-1.467934489589081	-0.02428612510351178	-5.083111933425884	-5.083111933425717	-0.6518156709441314	-0.02324831311499353	-1.162462456687236	-0.8575176638113799	-5.46100119529525e-09	-1.488075701158743e-07	1.0294401138113e-09	-1.102032421104508e-08	-1.315018968040815e-08	-1.28901908368539e-07	-7.384557206400838e-09
1.03	-0.3705017030026622	0.01452445648198016	0.6474364186735454	1.478472377525745	-0.3565966661991672	0.1095016124582067	-0.4363322546510063	1.377711004704699	1.377711004704655	0.02535440850524106	-0.1745230690248307	0.4330791396642178	0.2321706626576743	-0.09460146373033285	0.0112710573966232	0.08051082955693695	-0.1449854319086724	-0.0009662893392917849	-0.1060360733375763	-0.0001590324959022015	-0.3012391024187049	-0.3012391024187153	-0.01267049326034722	5.59074622949771e-05	-0.08662251455586745	-0.05113049952724581	-0.1982097949212156	0.03766841529589598	-0.005364402904052329	-0.2833069056857255	-0.03662585884136641	0.01792662705491946	0.1844430199585345	-41.72693267490366	3.159174588307075	-4.940854140452427	4.278803713691338	-528.2203391037053	-75.40862749078065	-0.02471769754083655	1.299206823488153	0.2336254154737063	1.65386328028515	-5.626637872014139	-0.1042514270585159	-1.432281890285104	0.03893569629753175	-5.061357719278903	-5.061357719271707	-0.651161212413771	0.01625702002310856	-1.162582863718811	-0.8229313234085013	-6.510339987342395e-09	-1.768146280265454e-07	-4.523186026790377e-10	-1.50604719368737e-08	-1.655278580917598e-08	-1.485672022689723e-07	-9.320575942141778e-09
1.04	-0.3713824818762534	0.0146489553923175	0.6483240998421866	1.476741077405227	-0.3566117357242738	0.1083692913313465	-0.4363317174144094	1.37444555004999	1.37444555004982	0.02519522385681774	-0.1745223682971935	0.4321546563965401	0.2316179267039416	-0.08156455912109933	0.01363714514660167	0.09700683450918011	-0.2012354538212605	-0.002042086851787515	-0.1204156187108198	0.0003282035284476627	-0.3518335028714114	-0.351833502871377	-0.01916180059241097	8.36848561147042e-05	-0.09828061054954378	-0.05940232379162002	-0.1986712352523386	0.03783079744225543	-0.00541996557879432	-0.2818470261888003	-0.03721194552247977	0.01795689318653952	0.1847357077346344	-41.87855709039128	3.118428872929335	-4.872506409483858	4.240971927965347	-528.039668491302	-75.18628848162457	-0.02474621466017118	1.315732424757995	0.2400554244758178	1.646652486103015	-5.633471759626283	-0.1159052319314324	-1.453026763040091	0.04978230674737183	-5.061106144488417	-5.061106144489193	-0.6464189540220928	-0.02399432014324998	-1.170302947869645	-0.8400512387584791	-8.182665432386978e-09	-2.061089523944358e-07	-1.154586771139744e-09	-1.829802973812248e-08	-2.025083169371844e-08	-1.667080383796285e-07	-1.17190825515814e-08
1.05	-0.372133312837531	0.01479748858530041	0.6493760911891034	1.474448604329485	-0.3566374034230749	0.1070936076787766	-0.4363234759663019	1.370674904277393	1.370674904277261	0.02497129064126819	-0.1745213917595993	0.4311135872050911	0.2309830344984984	-0.06862449766428748	0.01609011329557596	0.1133635133104646	-0.2572035361049475	-0.003088329306741543	-0.1347046160335104	0.001481728805242485	-0.4022572959072585	-0.402257295907245	-0.02561837388121875	0.0001083134906071031	-0.1099209759012178	-0.0675521490713842	-0.199418781311543	0.03803013334045959	-0.005477373998376008	-0.2798720490257091	-0.03809534279963853	0.01801450677642858	0.1853338845986509	-42.10801268189685	3.055189077923994	-4.772879220296654	4.157735120406101	-527.7562358953279	-74.92452878265495	-0.02477603850363952	1.279712728788049	0.25100615240006	1.625982513515753	-5.570133523064907	-0.09850720121315068	-1.414384857854493	0.1723840435742188	-5.027259671244711	-5.027259671247358	-0.6443350252977624	0.01518152785573415	-1.159078230961178	-0.7988151715233949	-9.87445921033773e-09	-2.354435038391143e-07	-1.832495859974529e-09	-2.151050660422815e-08	-2.395811038312885e-08	-1.848012351843541e-07	-1.413204190707411e-08
